<svg xmlns="http://www.w3.org/2000/svg" width="115.6" height="18.9" viewBox="0 0 115.6 18.9"><path d="M3.42.1A2.432,2.432,0,0,1,1.44-.8,3.6,3.6,0,0,1,.7-3.16a6.5,6.5,0,0,1,.74-3.03,6.317,6.317,0,0,1,1.97-2.3,4.443,4.443,0,0,1,2.61-.87.779.779,0,0,1,.59.17,1.437,1.437,0,0,1,.25.61,4.7,4.7,0,0,1,.88-.08q.98,0,.98.7a15.006,15.006,0,0,1-.3,2,19.411,19.411,0,0,0-.46,3.2.726.726,0,0,0,.15.48.484.484,0,0,0,.39.18,1.52,1.52,0,0,0,.92-.49,17.108,17.108,0,0,0,1.46-1.59.7.7,0,0,1,.54-.28.462.462,0,0,1,.41.24,1.241,1.241,0,0,1,.15.66,1.839,1.839,0,0,1-.38,1.24A10.075,10.075,0,0,1,9.86-.6,2.966,2.966,0,0,1,8.08.1,1.868,1.868,0,0,1,6.87-.35a2.742,2.742,0,0,1-.83-1.23A3.04,3.04,0,0,1,3.42.1Zm.72-2.02a1.1,1.1,0,0,0,.84-.52,3.372,3.372,0,0,0,.58-1.38L6.3-7.5a2.423,2.423,0,0,0-1.55.63A4.244,4.244,0,0,0,3.62-5.26,5.419,5.419,0,0,0,3.2-3.14a1.417,1.417,0,0,0,.25.92A.85.85,0,0,0,4.14-1.92Zm9.22-5.5q-.04,1-.04,1.56a13.047,13.047,0,0,0,.15,2.25,2.188,2.188,0,0,0,.5,1.16,1.311,1.311,0,0,0,.97.35,1.9,1.9,0,0,0,.76-.2,3.174,3.174,0,0,0,.8-.52.66.66,0,0,1,.44-.2.443.443,0,0,1,.39.27,1.32,1.32,0,0,1,.15.65,1.907,1.907,0,0,1-.15.74,1.489,1.489,0,0,1-.45.6A3.6,3.6,0,0,1,14.52.1a2.954,2.954,0,0,1-2.78-1.59,8.538,8.538,0,0,1-.88-4.15q0-.88.06-1.78h-.78a1.122,1.122,0,0,1-.81-.22.988.988,0,0,1-.21-.7q0-1.12.9-1.12h1.14a19.464,19.464,0,0,1,1.04-4.02,9.07,9.07,0,0,1,1.69-2.9,2.881,2.881,0,0,1,2.13-1.08,1.5,1.5,0,0,1,1.32.74,3.353,3.353,0,0,1,.48,1.86,7.007,7.007,0,0,1-2.6,5.4h2.24a.633.633,0,0,1,.46.14.736.736,0,0,1,.14.52q0,1.38-2.26,1.38Zm2.12-8.12q-.3,0-.67.75a10.671,10.671,0,0,0-.7,2.08,27.882,27.882,0,0,0-.55,2.95,6.831,6.831,0,0,0,1.77-2.29,5.554,5.554,0,0,0,.59-2.31Q15.92-15.54,15.48-15.54ZM31.94-4.46a.462.462,0,0,1,.41.24,1.241,1.241,0,0,1,.15.66,1.839,1.839,0,0,1-.38,1.24A8.508,8.508,0,0,1,30.24-.58,4.121,4.121,0,0,1,27.9.1q-4.08,0-4.08-5.74,0-.88.06-1.78H23.1a1.122,1.122,0,0,1-.81-.22.988.988,0,0,1-.21-.7q0-1.12.9-1.12h1.14a19.464,19.464,0,0,1,1.04-4.02,9.07,9.07,0,0,1,1.69-2.9,2.881,2.881,0,0,1,2.13-1.08,1.5,1.5,0,0,1,1.32.74,3.353,3.353,0,0,1,.48,1.86,7.007,7.007,0,0,1-2.6,5.4h2.24a.633.633,0,0,1,.46.14.736.736,0,0,1,.14.52q0,1.38-2.26,1.38H26.32q-.04,1-.04,1.56a6.223,6.223,0,0,0,.49,2.92,1.664,1.664,0,0,0,1.55.84,2.387,2.387,0,0,0,1.52-.52A12.135,12.135,0,0,0,31.4-4.18.7.7,0,0,1,31.94-4.46Zm-3.5-11.08q-.3,0-.67.75a10.67,10.67,0,0,0-.7,2.08,27.882,27.882,0,0,0-.55,2.95,6.831,6.831,0,0,0,1.77-2.29,5.554,5.554,0,0,0,.59-2.31Q28.88-15.54,28.44-15.54ZM41.68-4.46a.462.462,0,0,1,.41.24,1.241,1.241,0,0,1,.15.66,1.839,1.839,0,0,1-.38,1.24A10.548,10.548,0,0,1,39.97-.58,3.756,3.756,0,0,1,37.76.1a1.944,1.944,0,0,1-1.54-.59A2.51,2.51,0,0,1,35.7-2.2a12.487,12.487,0,0,1,.28-2,10.35,10.35,0,0,0,.26-1.74q0-.32-.22-.32-.26,0-.74.67a9.828,9.828,0,0,0-.96,1.77,14.366,14.366,0,0,0-.78,2.32A1.809,1.809,0,0,1,31.66.1a.773.773,0,0,1-.79-.43,4.31,4.31,0,0,1-.19-1.55q0-.64.02-1.02l.02-1.6a34.64,34.64,0,0,1,.63-6.42,19.293,19.293,0,0,1,1.86-5.61q1.23-2.27,2.95-2.27a1.757,1.757,0,0,1,1.49.79,3.422,3.422,0,0,1,.57,2.05,8.764,8.764,0,0,1-1.18,4.19A27.093,27.093,0,0,1,33.2-6.7q-.06,1.04-.06,2.14a11.478,11.478,0,0,1,1.47-2.77,5.737,5.737,0,0,1,1.6-1.53,2.928,2.928,0,0,1,1.45-.46,1.149,1.149,0,0,1,1.3,1.3,16.074,16.074,0,0,1-.44,2.82,13.88,13.88,0,0,0-.38,2.3q0,.8.58.8a1.563,1.563,0,0,0,.95-.49,16.052,16.052,0,0,0,1.47-1.59A.7.7,0,0,1,41.68-4.46ZM35.74-16.82q-.36,0-.8,1.03a17.454,17.454,0,0,0-.85,2.78,37.125,37.125,0,0,0-.67,3.81,14.313,14.313,0,0,0,2.05-3.18,7.426,7.426,0,0,0,.81-3.12,2.677,2.677,0,0,0-.14-.98Q36-16.82,35.74-16.82ZM47.48-3.86a.462.462,0,0,1,.41.24,1.241,1.241,0,0,1,.15.66,2.215,2.215,0,0,1-.34,1.24A3.894,3.894,0,0,1,46.23-.38,4.593,4.593,0,0,1,44.06.1a3.85,3.85,0,0,1-2.98-1.15,4.41,4.41,0,0,1-1.06-3.11,5.787,5.787,0,0,1,.58-2.57,4.749,4.749,0,0,1,1.61-1.89,4.049,4.049,0,0,1,2.33-.7,2.534,2.534,0,0,1,1.86.69,2.507,2.507,0,0,1,.7,1.87,3.234,3.234,0,0,1-.99,2.37,7.18,7.18,0,0,1-3.37,1.57,1.681,1.681,0,0,0,1.62.92,2.26,2.26,0,0,0,1.35-.38,6.531,6.531,0,0,0,1.23-1.28A.688.688,0,0,1,47.48-3.86ZM44.2-7.36a1.466,1.466,0,0,0-1.25.86,4.009,4.009,0,0,0-.51,2.08v.04a4.545,4.545,0,0,0,1.86-.84,1.651,1.651,0,0,0,.68-1.3.87.87,0,0,0-.21-.61A.734.734,0,0,0,44.2-7.36ZM54.66.1a1.093,1.093,0,0,1-1.07-.8,7.666,7.666,0,0,1-.31-2.56,16.287,16.287,0,0,1,.74-4.94,1.5,1.5,0,0,1,.59-.85,2.081,2.081,0,0,1,1.15-.27,1.127,1.127,0,0,1,.56.1.413.413,0,0,1,.16.38,7.624,7.624,0,0,1-.3,1.44q-.2.8-.32,1.39a13.861,13.861,0,0,0-.2,1.47,10.822,10.822,0,0,1,1.29-2.64,6.077,6.077,0,0,1,1.54-1.61,2.706,2.706,0,0,1,1.49-.53,1.288,1.288,0,0,1,.99.32,1.423,1.423,0,0,1,.29.98,12.67,12.67,0,0,1-.38,2.32q-.16.72-.22,1.08A9.9,9.9,0,0,1,62.88-8.2a3.518,3.518,0,0,1,2.28-1.12,1.149,1.149,0,0,1,1.3,1.3,16.074,16.074,0,0,1-.44,2.82,13.88,13.88,0,0,0-.38,2.3q0,.8.58.8a1.563,1.563,0,0,0,.95-.49,16.051,16.051,0,0,0,1.47-1.59.7.7,0,0,1,.54-.28.462.462,0,0,1,.41.24,1.241,1.241,0,0,1,.15.66,1.839,1.839,0,0,1-.38,1.24A8.851,8.851,0,0,1,67.51-.58,3.88,3.88,0,0,1,65.26.1a1.944,1.944,0,0,1-1.54-.59A2.51,2.51,0,0,1,63.2-2.2a12.486,12.486,0,0,1,.28-2,10.35,10.35,0,0,0,.26-1.74q0-.32-.22-.32-.26,0-.74.67a9.828,9.828,0,0,0-.96,1.77,14.365,14.365,0,0,0-.78,2.32,3.051,3.051,0,0,1-.51,1.28A1.2,1.2,0,0,1,59.6.1a1.06,1.06,0,0,1-.99-.63,3.263,3.263,0,0,1-.33-1.53,17.309,17.309,0,0,1,.2-2.2q.16-1.28.16-1.68,0-.32-.22-.32-.3,0-.76.72a10.333,10.333,0,0,0-.89,1.84,17.7,17.7,0,0,0-.69,2.2,3.119,3.119,0,0,1-.51,1.27A1.151,1.151,0,0,1,54.66.1ZM78.02-6.14a.436.436,0,0,1,.4.26,1.383,1.383,0,0,1,.14.66q0,.96-.58,1.14a9.106,9.106,0,0,1-2.64.48,4.992,4.992,0,0,1-1.5,2.69A3.69,3.69,0,0,1,71.3.1a3.549,3.549,0,0,1-2.05-.58,3.684,3.684,0,0,1-1.29-1.54,4.932,4.932,0,0,1-.44-2.08,6.108,6.108,0,0,1,.58-2.71,4.556,4.556,0,0,1,1.6-1.86,4.029,4.029,0,0,1,2.26-.67,3.115,3.115,0,0,1,2.45,1.05A4.5,4.5,0,0,1,75.5-5.7a12.122,12.122,0,0,0,2.24-.4A1.175,1.175,0,0,1,78.02-6.14ZM71.46-2.02a1.45,1.45,0,0,0,1.11-.52,2.887,2.887,0,0,0,.63-1.5,2.761,2.761,0,0,1-.95-1.1,3.256,3.256,0,0,1-.33-1.44,3.466,3.466,0,0,1,.06-.64h-.1a1.57,1.57,0,0,0-1.33.77,3.8,3.8,0,0,0-.53,2.17,2.79,2.79,0,0,0,.43,1.68A1.242,1.242,0,0,0,71.46-2.02ZM77.96.1a1.093,1.093,0,0,1-1.07-.8,7.666,7.666,0,0,1-.31-2.56,16.288,16.288,0,0,1,.74-4.94,1.5,1.5,0,0,1,.59-.85,2.081,2.081,0,0,1,1.15-.27,1.127,1.127,0,0,1,.56.1.413.413,0,0,1,.16.38,7.624,7.624,0,0,1-.3,1.44q-.2.8-.32,1.39a13.862,13.862,0,0,0-.2,1.47,10.822,10.822,0,0,1,1.29-2.64,6.077,6.077,0,0,1,1.54-1.61,2.706,2.706,0,0,1,1.49-.53,1.288,1.288,0,0,1,.99.32,1.423,1.423,0,0,1,.29.98,12.671,12.671,0,0,1-.38,2.32q-.16.72-.22,1.08A9.9,9.9,0,0,1,86.18-8.2a3.518,3.518,0,0,1,2.28-1.12,1.149,1.149,0,0,1,1.3,1.3,16.074,16.074,0,0,1-.44,2.82,13.88,13.88,0,0,0-.38,2.3q0,.8.58.8a1.563,1.563,0,0,0,.95-.49,16.051,16.051,0,0,0,1.47-1.59.7.7,0,0,1,.54-.28.462.462,0,0,1,.41.24,1.241,1.241,0,0,1,.15.66,1.839,1.839,0,0,1-.38,1.24A8.851,8.851,0,0,1,90.81-.58,3.88,3.88,0,0,1,88.56.1a1.944,1.944,0,0,1-1.54-.59A2.51,2.51,0,0,1,86.5-2.2a12.486,12.486,0,0,1,.28-2,10.35,10.35,0,0,0,.26-1.74q0-.32-.22-.32-.26,0-.74.67a9.828,9.828,0,0,0-.96,1.77,14.366,14.366,0,0,0-.78,2.32,3.051,3.051,0,0,1-.51,1.28A1.2,1.2,0,0,1,82.9.1a1.06,1.06,0,0,1-.99-.63,3.263,3.263,0,0,1-.33-1.53,17.31,17.31,0,0,1,.2-2.2q.16-1.28.16-1.68,0-.32-.22-.32-.3,0-.76.72a10.334,10.334,0,0,0-.89,1.84,17.7,17.7,0,0,0-.69,2.2,3.119,3.119,0,0,1-.51,1.27A1.151,1.151,0,0,1,77.96.1Zm22.08-4.56a.462.462,0,0,1,.41.24,1.241,1.241,0,0,1,.15.66,1.839,1.839,0,0,1-.38,1.24A7.306,7.306,0,0,1,98.13-.66,5.8,5.8,0,0,1,95.24.1a4.453,4.453,0,0,1-3.26-1.14,4.175,4.175,0,0,1-1.16-3.12,5.787,5.787,0,0,1,.58-2.57,4.749,4.749,0,0,1,1.61-1.89,4.049,4.049,0,0,1,2.33-.7,2.534,2.534,0,0,1,1.86.69,2.507,2.507,0,0,1,.7,1.87,3.234,3.234,0,0,1-.99,2.37,7.159,7.159,0,0,1-3.35,1.57,1.964,1.964,0,0,0,1.9.92,4.374,4.374,0,0,0,2.05-.63A6.77,6.77,0,0,0,99.5-4.18.7.7,0,0,1,100.04-4.46ZM95-7.36a1.466,1.466,0,0,0-1.25.86,4.009,4.009,0,0,0-.51,2.08v.04a4.545,4.545,0,0,0,1.86-.84,1.651,1.651,0,0,0,.68-1.3.87.87,0,0,0-.21-.61A.734.734,0,0,0,95-7.36ZM100.1.1a1.093,1.093,0,0,1-1.07-.8,7.666,7.666,0,0,1-.31-2.56,16.288,16.288,0,0,1,.74-4.94,1.5,1.5,0,0,1,.59-.85,2.081,2.081,0,0,1,1.15-.27,1.127,1.127,0,0,1,.56.1.413.413,0,0,1,.16.38,7.624,7.624,0,0,1-.3,1.44q-.2.8-.32,1.4a14.348,14.348,0,0,0-.2,1.48,11.372,11.372,0,0,1,1.48-2.8,5.8,5.8,0,0,1,1.61-1.54,2.928,2.928,0,0,1,1.45-.46,1.149,1.149,0,0,1,1.3,1.3,16.074,16.074,0,0,1-.44,2.82,13.88,13.88,0,0,0-.38,2.3q0,.8.58.8a1.563,1.563,0,0,0,.95-.49,16.052,16.052,0,0,0,1.47-1.59.7.7,0,0,1,.54-.28.462.462,0,0,1,.41.24,1.241,1.241,0,0,1,.15.66,1.839,1.839,0,0,1-.38,1.24,8.851,8.851,0,0,1-1.85,1.74,3.88,3.88,0,0,1-2.25.68,1.944,1.944,0,0,1-1.54-.59,2.51,2.51,0,0,1-.52-1.71,12.486,12.486,0,0,1,.28-2,10.35,10.35,0,0,0,.26-1.74q0-.32-.22-.32-.26,0-.73.67a10.74,10.74,0,0,0-.96,1.77,13.768,13.768,0,0,0-.79,2.32,3.119,3.119,0,0,1-.51,1.27A1.151,1.151,0,0,1,100.1.1Zm11.5-7.52q-.04,1-.04,1.56a13.047,13.047,0,0,0,.15,2.25,2.188,2.188,0,0,0,.5,1.16,1.311,1.311,0,0,0,.97.35,1.9,1.9,0,0,0,.76-.2,3.174,3.174,0,0,0,.8-.52.66.66,0,0,1,.44-.2.443.443,0,0,1,.39.27,1.32,1.32,0,0,1,.15.65,1.907,1.907,0,0,1-.15.74,1.489,1.489,0,0,1-.45.6,3.6,3.6,0,0,1-2.36.86,2.954,2.954,0,0,1-2.78-1.59,8.538,8.538,0,0,1-.88-4.15q0-.88.06-1.78h-.78a1.122,1.122,0,0,1-.81-.22.988.988,0,0,1-.21-.7q0-1.12.9-1.12h1.14a19.464,19.464,0,0,1,1.04-4.02,9.07,9.07,0,0,1,1.69-2.9,2.881,2.881,0,0,1,2.13-1.08,1.5,1.5,0,0,1,1.32.74,3.353,3.353,0,0,1,.48,1.86,7.007,7.007,0,0,1-2.6,5.4h2.24a.633.633,0,0,1,.46.14.736.736,0,0,1,.14.52q0,1.38-2.26,1.38Zm2.12-8.12q-.3,0-.67.75a10.671,10.671,0,0,0-.7,2.08,27.881,27.881,0,0,0-.55,2.95,6.831,6.831,0,0,0,1.77-2.29,5.554,5.554,0,0,0,.59-2.31Q114.16-15.54,113.72-15.54Z" transform="translate(-0.7 18.8)"/></svg>